<svg version="1.1" id="LogoSVG" xmlns="http://www.w3.org/2000/svg" xmlns:xlink="http://www.w3.org/1999/xlink" x="0px" y="0px" viewBox="0 0 512 512" style="enable-background:new 0 0 512 512;" xml:space="preserve">
<circle class="logo-circle" cx="256.33" cy="256.02" r="250.29"/>
<path class="logo-green" d="M209.12,139.17c6.7-0.84,13.49-0.15,20.23-0.37c4.16,0.17,8.51-0.58,12.52,0.81c4.15,1.57,7.06,5.87,6.86,10.31
	c0,31.98,0.03,63.96-0.02,95.93c0.09,2.99-0.53,6.48,1.68,8.9c1.36,1.68,3.73,1.58,5.69,1.66c12.32-0.03,24.63,0,36.95-0.03
	c6.46-0.76,12.6,4.93,12.1,11.47c-0.04,7.06,0.13,14.14-0.08,21.21c-0.22,5.68-5.59,10.35-11.22,10.01
	c-27.54-0.02-55.08,0.06-82.61-0.04c-5.97,0.02-10.91-5.64-10.49-11.52c0.01-45.85-0.02-91.69,0.01-137.53
	C200.57,145,204.25,140.22,209.12,139.17L209.12,139.17z"/>
<path class="logo-orange" d="M421.06,167.21c4.48-4.85,10.6-8.73,17.37-8.88c3.02-0.18,5.91,0.8,8.75,1.71c2.71,4.98,3.33,10.9,1.82,16.37
	c-2.17,8.86-7.75,16.34-13.57,23.16c-9.97,12.47-18.98,25.67-28.11,38.76c-1.9,2.87-4.03,5.58-5.82,8.52
	c-1.04,1.05,0.19,2.17,0.69,3.11c18.82,27.57,37.5,55.24,56.29,82.82c3.55,4.96,7.31,10.54,6.89,16.92c-0.21,4.15-3.62,7.2-7.2,8.74
	c-11.41,5.21-23.82,7.7-36.09,9.98c-8.15,1.58-16.38-3.57-20.02-10.75c-10.21-21.51-21.42-42.52-32.25-63.72
	c-12.98,19.21-25.61,38.65-38.32,58.04c-2.39,3.53-5.6,6.61-9.51,8.39c-2.44,1.12-5.53,1.18-7.79-0.42c-2.46-1.72-4.2-4.2-6.03-6.54
	c-4.47-5.92-8.31-12.31-11.98-18.75c-3.47-5.73-2.96-12.94-1.02-19.1c1.74-5.51,4.93-10.47,8.77-14.75
	c14.52-16.52,28.97-33.09,43.53-49.59c-9.9-19.37-20.12-38.59-30.21-57.87c-2.86-5.29-3.82-11.45-3.52-17.4
	c0.25-4.71,2.47-9.62,6.74-11.96c6.19-3.36,14.22-4.16,20.48-0.56c3.1,1.72,5.59,4.39,7.53,7.33
	c10.05,14.89,20.18,29.73,30.25,44.61C392.99,199.43,406.92,183.22,421.06,167.21L421.06,167.21z"/>
<path class="logo-letter" d="M101.63,164.8c15.56-1.99,31.69,1.54,45.14,9.57c17.35,10.25,30.3,27.03,37.51,45.7c8.62,22.12,9.64,47.04,3.21,69.88
	c-5.86,20.79-18.29,40.11-36.25,52.41c-11.85,8.23-26.15,12.87-40.58,13c-15.3,0-30.46-5.11-42.79-14.14
	c-18.68-13.53-31.09-34.6-36.05-56.94c-5.8-25.73-2.32-53.66,10.54-76.78c8.33-14.96,20.75-27.88,36.14-35.58
	C85.74,168.24,93.6,165.89,101.63,164.8L101.63,164.8z M103.95,195.33c-8.1,2.36-14.44,8.57-19.01,15.45
	c-6.71,10.19-10.35,22.14-12.03,34.16c-2.4,17.76-0.65,36.27,6.19,52.92c3.92,9.15,9.63,18.03,18.21,23.42
	c6.53,4.23,15.16,5.06,22.33,1.97c6.8-2.91,12.17-8.37,16.19-14.46c6.66-10.11,10.26-21.94,11.98-33.84
	c2.46-17.99,0.72-36.8-6.33-53.62c-3.73-8.66-9.13-16.95-17-22.38C118.57,194.93,110.89,193.13,103.95,195.33L103.95,195.33z"/>
</svg>
